<?xml version="1.0" encoding="utf-8"?>
<!-- Generator: Adobe Illustrator 26.2.1, SVG Export Plug-In . SVG Version: 6.00 Build 0)  -->
<svg version="1.1" id="Laag_1" xmlns="http://www.w3.org/2000/svg" xmlns:xlink="http://www.w3.org/1999/xlink" x="0px" y="0px"
	 viewBox="0 0 1133.9 2636.2" style="enable-background:new 0 0 1133.9 2636.2;" xml:space="preserve">
<style type="text/css">
	.st0{fill:none;stroke:#000000;stroke-width:4;stroke-miterlimit:10;}
	.st1{font-family:'ArialMT';}
	.st2{font-size:12px;}
	.st3{fill:none;stroke:#000000;stroke-miterlimit:10;}
	.st4{fill:none;stroke:#000000;stroke-width:8;stroke-miterlimit:10;}
	.st5{fill:none;stroke:#000000;stroke-width:2;stroke-miterlimit:10;}
</style>
<path class="st0" d="M929.7,538.2H609.8c-59.3,0-107.4-48.1-107.4-107.4V152.3c0-59.3,48.1-107.4,107.4-107.4h319.9
	c59.3,0,107.4,48.1,107.4,107.4v278.5C1037.1,490.1,989,538.2,929.7,538.2z"/>
<polygon class="st0" points="412.5,724.3 469.2,584.9 472.2,303 432.4,114.6 466.1,44.1 26.5,39.5 51,151.3 49.4,275.4 26.5,347.4 
	54,378.1 28,388.8 29.5,529.7 41.8,664.5 24.9,713.6 38.7,822.3 26.5,889.7 47.9,944.9 406.4,947.9 464.6,895.9 406.4,877.5 
	466.1,862.2 469.2,745.7 "/>
<circle class="st0" cx="229.3" cy="900" r="21.3"/>
<circle class="st0" cx="421.2" cy="1001.5" r="28.3"/>
<rect x="31" y="1627.8" class="st0" width="226.8" height="566.9"/>
<path class="st0" d="M367.3,2130.7c-19.3,18.8-19,48.7,1,67.4l-83.7-0.5l-2.8-566.4l224.5,3.1l2.3,563.4l-72.8,0.4
	c16.4-18.8,16.5-46.5,1-64.3C419.5,2113.9,387.1,2111.4,367.3,2130.7z"/>
<path class="st0" d="M173,1921.2L173,1921.2c-2.5,0-4.6-2.1-4.6-4.6v-89.9c0-2.5,2.1-4.6,4.6-4.6l0,0c2.5,0,4.6,2.1,4.6,4.6v89.9
	C177.6,1919.2,175.6,1921.2,173,1921.2z"/>
<path class="st0" d="M192.4,1881.9L192.4,1881.9c-2.5,0-4.6-2.1-4.6-4.6v-89.9c0-2.5,2.1-4.6,4.6-4.6l0,0c2.5,0,4.6,2.1,4.6,4.6
	v89.9C197,1879.8,194.9,1881.9,192.4,1881.9z"/>
<path class="st0" d="M220,1993.2L220,1993.2c-2.5,0-4.6-2.1-4.6-4.6v-89.9c0-2.5,2.1-4.6,4.6-4.6l0,0c2.5,0,4.6,2.1,4.6,4.6v89.9
	C224.6,1991.2,222.5,1993.2,220,1993.2z"/>
<path class="st0" d="M71.4,2076.5L71.4,2076.5c-2.5,0-4.6-2.1-4.6-4.6V1982c0-2.5,2.1-4.6,4.6-4.6l0,0c2.5,0,4.6,2.1,4.6,4.6v89.9
	C76,2074.4,73.9,2076.5,71.4,2076.5z"/>
<path class="st0" d="M90.8,2037.1L90.8,2037.1c-2.5,0-4.6-2.1-4.6-4.6v-89.9c0-2.5,2.1-4.6,4.6-4.6l0,0c2.5,0,4.6,2.1,4.6,4.6v89.9
	C95.4,2035.1,93.3,2037.1,90.8,2037.1z"/>
<path class="st0" d="M109.2,2116.8L109.2,2116.8c-2.5,0-4.6-2.1-4.6-4.6v-89.9c0-2.5,2.1-4.6,4.6-4.6l0,0c2.5,0,4.6,2.1,4.6,4.6
	v89.9C113.8,2114.7,111.7,2116.8,109.2,2116.8z"/>
<path class="st0" d="M72.4,1831.3L72.4,1831.3c-2.5,0-4.6-2.1-4.6-4.6v-89.9c0-2.5,2.1-4.6,4.6-4.6l0,0c2.5,0,4.6,2.1,4.6,4.6v89.9
	C77,1829.3,74.9,1831.3,72.4,1831.3z"/>
<path class="st0" d="M91.8,1792L91.8,1792c-2.5,0-4.6-2.1-4.6-4.6v-89.9c0-2.5,2.1-4.6,4.6-4.6l0,0c2.5,0,4.6,2.1,4.6,4.6v89.9
	C96.4,1790,94.3,1792,91.8,1792z"/>
<path class="st0" d="M110.2,1871.7L110.2,1871.7c-2.5,0-4.6-2.1-4.6-4.6v-89.9c0-2.5,2.1-4.6,4.6-4.6l0,0c2.5,0,4.6,2.1,4.6,4.6
	v89.9C114.8,1869.6,112.7,1871.7,110.2,1871.7z"/>
<text transform="matrix(1 0 0 1 383.1345 1728.7114)" class="st1 st2">12</text>
<text transform="matrix(1 0 0 1 424.6667 1769.5619)" class="st1 st2">3</text>
<text transform="matrix(1 0 0 1 352.526 1764.9662)" class="st1 st2">9</text>
<text transform="matrix(1 0 0 1 391.8614 1798.9865)" class="st1 st2">6</text>
<path class="st3" d="M384.5,1775c1.7-2.6,7.8-14.4,11.6-19.1l5.5,16.7l-8.5,15L384.5,1775z"/>
<polygon class="st3" points="404.2,1754.9 421.6,1736.5 428.8,1743.3 422.3,1753.6 "/>
<path class="st3" d="M390.8,1857.9h4.6c9.5,0,17.2,7.7,17.2,17.2v157.8c0,9.5-7.7,17.2-17.2,17.2h-4.6c-9.5,0-17.2-7.7-17.2-17.2
	v-157.8C373.6,1865.6,381.3,1857.9,390.8,1857.9z"/>
<path class="st4" d="M384.6,1805.1c-21.2-1.7-35-14.5-39.7-34.6c-5.7-23.8,9.1-44.7,24.5-53.6c1.6-0.9,9.7-5.5,21.5-6.1
	c15.6-0.9,37.7,5.1,48.3,23.7c13.2,23.4,2.2,56.2-17.6,65.9c-6,2.9-12.7,5.7-17.5,5.4"/>
<rect x="556.2" y="1640.3" class="st0" width="170.1" height="566.9"/>
<path class="st0" d="M592.5,1851.8L592.5,1851.8c-2.5,0-4.6-2.1-4.6-4.6v-89.9c0-2.5,2.1-4.6,4.6-4.6l0,0c2.5,0,4.6,2.1,4.6,4.6
	v89.9C597.1,1849.7,595,1851.8,592.5,1851.8z"/>
<path class="st0" d="M611.9,1812.5L611.9,1812.5c-2.5,0-4.6-2.1-4.6-4.6V1718c0-2.5,2.1-4.6,4.6-4.6l0,0c2.5,0,4.6,2.1,4.6,4.6v89.9
	C616.5,1810.4,614.4,1812.5,611.9,1812.5z"/>
<path class="st0" d="M630.3,1892.1L630.3,1892.1c-2.5,0-4.6-2.1-4.6-4.6v-89.9c0-2.5,2.1-4.6,4.6-4.6l0,0c2.5,0,4.6,2.1,4.6,4.6
	v89.9C634.9,1890.1,632.8,1892.1,630.3,1892.1z"/>
<path class="st0" d="M656.3,2046.1L656.3,2046.1c-2.5,0-4.6-2.1-4.6-4.6v-89.9c0-2.5,2.1-4.6,4.6-4.6l0,0c2.5,0,4.6,2.1,4.6,4.6
	v89.9C660.9,2044,658.9,2046.1,656.3,2046.1z"/>
<path class="st0" d="M675.7,2006.8L675.7,2006.8c-2.5,0-4.6-2.1-4.6-4.6v-89.9c0-2.5,2.1-4.6,4.6-4.6l0,0c2.5,0,4.6,2.1,4.6,4.6
	v89.9C680.3,2004.7,678.3,2006.8,675.7,2006.8z"/>
<path class="st0" d="M694.1,2086.4L694.1,2086.4c-2.5,0-4.6-2.1-4.6-4.6v-89.9c0-2.5,2.1-4.6,4.6-4.6l0,0c2.5,0,4.6,2.1,4.6,4.6
	v89.9C698.7,2084.4,696.7,2086.4,694.1,2086.4z"/>
<path class="st0" d="M595.9,2130.6L595.9,2130.6c-2.5,0-4.6-2.1-4.6-4.6v-89.9c0-2.5,2.1-4.6,4.6-4.6l0,0c2.5,0,4.6,2.1,4.6,4.6
	v89.9C600.5,2128.5,598.5,2130.6,595.9,2130.6z"/>
<path class="st0" d="M615.3,2091.3L615.3,2091.3c-2.5,0-4.6-2.1-4.6-4.6v-89.9c0-2.5,2.1-4.6,4.6-4.6l0,0c2.5,0,4.6,2.1,4.6,4.6
	v89.9C619.9,2089.2,617.9,2091.3,615.3,2091.3z"/>
<path class="st0" d="M633.7,2170.9L633.7,2170.9c-2.5,0-4.6-2.1-4.6-4.6v-89.9c0-2.5,2.1-4.6,4.6-4.6l0,0c2.5,0,4.6,2.1,4.6,4.6
	v89.9C638.3,2168.9,636.3,2170.9,633.7,2170.9z"/>
<path class="st0" d="M667.2,1819.6L667.2,1819.6c-2.5,0-4.6-2.1-4.6-4.6v-89.9c0-2.5,2.1-4.6,4.6-4.6l0,0c2.5,0,4.6,2.1,4.6,4.6
	v89.9C671.8,1817.6,669.7,1819.6,667.2,1819.6z"/>
<path class="st0" d="M686.6,1780.3L686.6,1780.3c-2.5,0-4.6-2.1-4.6-4.6v-89.9c0-2.5,2.1-4.6,4.6-4.6l0,0c2.5,0,4.6,2.1,4.6,4.6
	v89.9C691.2,1778.2,689.1,1780.3,686.6,1780.3z"/>
<path class="st0" d="M705,1859.9L705,1859.9c-2.5,0-4.6-2.1-4.6-4.6v-89.9c0-2.5,2.1-4.6,4.6-4.6l0,0c2.5,0,4.6,2.1,4.6,4.6v89.9
	C709.6,1857.9,707.5,1859.9,705,1859.9z"/>
<rect x="742.3" y="1640.3" class="st0" width="170.1" height="566.9"/>
<path class="st0" d="M778.6,1851.8L778.6,1851.8c-2.5,0-4.6-2.1-4.6-4.6v-89.9c0-2.5,2.1-4.6,4.6-4.6l0,0c2.5,0,4.6,2.1,4.6,4.6
	v89.9C783.2,1849.7,781.2,1851.8,778.6,1851.8z"/>
<path class="st0" d="M798,1812.5L798,1812.5c-2.5,0-4.6-2.1-4.6-4.6V1718c0-2.5,2.1-4.6,4.6-4.6l0,0c2.5,0,4.6,2.1,4.6,4.6v89.9
	C802.6,1810.4,800.6,1812.5,798,1812.5z"/>
<path class="st0" d="M816.4,1892.1L816.4,1892.1c-2.5,0-4.6-2.1-4.6-4.6v-89.9c0-2.5,2.1-4.6,4.6-4.6l0,0c2.5,0,4.6,2.1,4.6,4.6
	v89.9C821,1890.1,819,1892.1,816.4,1892.1z"/>
<path class="st0" d="M842.5,2046.1L842.5,2046.1c-2.5,0-4.6-2.1-4.6-4.6v-89.9c0-2.5,2.1-4.6,4.6-4.6l0,0c2.5,0,4.6,2.1,4.6,4.6
	v89.9C847,2044,845,2046.1,842.5,2046.1z"/>
<path class="st0" d="M861.9,2006.8L861.9,2006.8c-2.5,0-4.6-2.1-4.6-4.6v-89.9c0-2.5,2.1-4.6,4.6-4.6l0,0c2.5,0,4.6,2.1,4.6,4.6
	v89.9C866.5,2004.7,864.4,2006.8,861.9,2006.8z"/>
<path class="st0" d="M880.2,2086.4L880.2,2086.4c-2.5,0-4.6-2.1-4.6-4.6v-89.9c0-2.5,2.1-4.6,4.6-4.6l0,0c2.5,0,4.6,2.1,4.6,4.6
	v89.9C884.8,2084.4,882.8,2086.4,880.2,2086.4z"/>
<path class="st0" d="M782.1,2130.6L782.1,2130.6c-2.5,0-4.6-2.1-4.6-4.6v-89.9c0-2.5,2.1-4.6,4.6-4.6l0,0c2.5,0,4.6,2.1,4.6,4.6
	v89.9C786.7,2128.5,784.6,2130.6,782.1,2130.6z"/>
<path class="st0" d="M801.5,2091.3L801.5,2091.3c-2.5,0-4.6-2.1-4.6-4.6v-89.9c0-2.5,2.1-4.6,4.6-4.6l0,0c2.5,0,4.6,2.1,4.6,4.6
	v89.9C806.1,2089.2,804,2091.3,801.5,2091.3z"/>
<path class="st0" d="M819.9,2170.9L819.9,2170.9c-2.5,0-4.6-2.1-4.6-4.6v-89.9c0-2.5,2.1-4.6,4.6-4.6l0,0c2.5,0,4.6,2.1,4.6,4.6
	v89.9C824.5,2168.9,822.4,2170.9,819.9,2170.9z"/>
<path class="st0" d="M853.3,1819.6L853.3,1819.6c-2.5,0-4.6-2.1-4.6-4.6v-89.9c0-2.5,2.1-4.6,4.6-4.6l0,0c2.5,0,4.6,2.1,4.6,4.6
	v89.9C857.9,1817.6,855.8,1819.6,853.3,1819.6z"/>
<path class="st0" d="M872.7,1780.3L872.7,1780.3c-2.5,0-4.6-2.1-4.6-4.6v-89.9c0-2.5,2.1-4.6,4.6-4.6l0,0c2.5,0,4.6,2.1,4.6,4.6
	v89.9C877.3,1778.2,875.2,1780.3,872.7,1780.3z"/>
<path class="st0" d="M891.1,1859.9L891.1,1859.9c-2.5,0-4.6-2.1-4.6-4.6v-89.9c0-2.5,2.1-4.6,4.6-4.6l0,0c2.5,0,4.6,2.1,4.6,4.6
	v89.9C895.7,1857.9,893.6,1859.9,891.1,1859.9z"/>
<rect x="940.2" y="1644.2" class="st0" width="170.1" height="226.8"/>
<rect x="968.1" y="1660.3" class="st5" width="26" height="84.8"/>
<rect x="1003.3" y="1660.3" class="st5" width="26" height="84.8"/>
<rect x="1029.1" y="1769.1" class="st5" width="26" height="84.8"/>
<rect x="1064.3" y="1769.1" class="st5" width="26" height="84.8"/>
<rect x="939.5" y="1880.9" class="st0" width="170.1" height="226.8"/>
<rect x="967.3" y="1897" class="st5" width="26" height="84.8"/>
<rect x="1002.5" y="1897" class="st5" width="26" height="84.8"/>
<rect x="1028.3" y="2005.7" class="st5" width="26" height="84.8"/>
<rect x="1063.6" y="2005.7" class="st5" width="26" height="84.8"/>
<polygon class="st0" points="760.8,1543.3 699.5,1544.9 636.7,1305.9 727,1043.9 806.7,1025.6 769.9,1073.1 717.9,1305.9 "/>
<polygon class="st0" points="915.5,1541.6 854.3,1543.2 791.5,1304.2 881.8,1042.2 961.5,1023.8 924.7,1071.3 872.7,1304.2 "/>
<polygon class="st0" points="1057.2,1544 995.9,1545.6 933.1,1306.6 1023.5,1044.6 1103.2,1026.2 1066.4,1073.7 1014.3,1306.6 "/>
<polygon class="st0" points="622.2,1600 560.9,1601.6 498.1,1362.6 588.5,1100.6 668.2,1082.2 631.4,1129.7 579.3,1362.6 "/>
<polygon class="st0" points="337.2,1596.6 275.9,1598.2 213.1,1359.2 303.5,1097.2 383.2,1078.8 346.4,1126.3 294.3,1359.2 "/>
<polygon class="st0" points="477.7,1619.4 416.4,1620.9 353.6,1382 444,1120 523.7,1101.6 486.9,1149.1 434.8,1382 "/>
<polygon class="st0" points="1014.3,969.8 863.5,1009.8 753.4,899.3 794.1,748.6 944.9,708.6 1055,819.1 "/>
<polygon class="st0" points="957.8,918.8 876.6,933.9 823,871.1 850.6,793.2 931.8,778.2 985.4,841 "/>
<polygon class="st0" points="674.2,1036.8 564,1066.1 483.6,985.3 513.3,875.3 623.5,846 703.9,926.8 "/>
<polygon class="st0" points="634.1,1000.9 575.1,1013.4 534.8,968.5 553.4,911.2 612.5,898.7 652.8,943.5 "/>
<path class="st0" d="M459.7,713.7l28.3-24.5l31-4.1l26.8-54.7l19.4-1.5l-11.5-42.4l36.2-11.2l-8.9,19.4l-0.5,34.8l16.8-28.6
	l24.1-18.9l18.9,7.2l-18.4,19.4l-23.6,24.5l47.7-14.8l31,5.1l-14.2,22l-62.4-0.5l68.7,12.3l34.6,25l15.2-12.8l19.4,2v47.5
	l-15.7,15.3l-24.1-3.1l7.9,62.4L677,809.3l-73.4,3.6l-86-1l-11-32.2l5.2-12.3L529,770l2.1-14.8l10.5,2.6c0,0-7.3,15.3-5.2,15.3
	s13.6-2,13.6-2l-2.1-15.3l13.6,0.5l1,11.2l24.1-3.1l-11-9.2l19.4-5.1l6.3,12.3l10-41.9l-35.7,8.7l-12.6-7.7l-8.4,13.3l-9.4-1
	l-20.5-2.6l3.2-10.7l-21,2l-2.1-10.2l-23.1,7.2l-11.5,11.2L459.7,713.7z"/>
<ellipse class="st0" cx="594.8" cy="679.5" rx="17" ry="16.4"/>
<ellipse class="st0" cx="552.3" cy="674.9" rx="13.9" ry="11.8"/>
<polygon class="st0" points="188.5,2323.3 101.3,2322.1 122.3,2296.8 122.3,2256.4 178.8,2255.2 172.3,2296.8 "/>
<polygon class="st0" points="246.6,2240.3 269.2,2236.8 270.8,2288.7 306.3,2319.8 203,2322.1 249.8,2286.4 "/>
<path class="st0" d="M381,2281.2l-5.2,1.7c-1.1-15-2.1-30-3.2-45c-7,0.4-14,0.8-21,1.1l3.2,41.5c-4.8,3.2-41.8,28.6-33.1,39.2
	c1,1.2,3.8,3.7,32.7,5.5c31.7,1.9,47.6,2.9,53.3-2.3c10.2-9.3-1-31.6-20.6-39.8C384.8,2282.3,382.7,2281.6,381,2281.2"/>
<path class="st0" d="M177.4,2318.1l-56.9-0.9l7.3-17.7c13.3-0.3,26.6-0.6,40-0.9L177.4,2318.1z"/>
<polygon class="st0" points="220.8,2313.3 252.2,2293.9 283.7,2315.9 "/>
<path class="st0" d="M396.7,2319.2c-2.4-2.2-62.4-2.2-62.4-2.2l18.8-25.9l32.1-0.9L396.7,2319.2z"/>
<polygon class="st0" points="508,2319.5 420.9,2318.4 441.9,2293 441.9,2252.7 498.4,2251.5 491.9,2293 "/>
<polygon class="st0" points="566.2,2236.5 588.8,2233.1 590.4,2284.9 625.9,2316.1 522.6,2318.4 569.4,2282.6 "/>
<path class="st0" d="M700.6,2277.4l-5.2,1.7c-1.1-15-2.2-30-3.2-45c-7,0.4-14,0.8-21,1.2l3.2,41.5c-4.8,3.2-41.8,28.6-33.1,39.2
	c1,1.2,3.8,3.7,32.7,5.5c31.7,1.9,47.6,2.9,53.3-2.3c10.2-9.3-1-31.6-20.6-39.8C704.4,2278.5,702.3,2277.9,700.6,2277.4"/>
<path class="st0" d="M497,2314.4l-56.9-0.9l7.3-17.7c13.3-0.3,26.6-0.6,40-0.9L497,2314.4z"/>
<polygon class="st0" points="540.3,2309.6 571.8,2290.1 603.3,2312.2 "/>
<path class="st0" d="M716.3,2315.5c-2.4-2.2-62.4-2.1-62.4-2.1l18.8-25.9l32.1-0.9L716.3,2315.5z"/>
<polygon class="st0" points="819,2326.4 731.8,2325.3 752.8,2299.9 752.8,2259.6 809.3,2258.4 802.9,2299.9 "/>
<polygon class="st0" points="877.1,2243.4 899.7,2239.9 901.4,2291.8 936.9,2323 833.5,2325.3 880.4,2289.5 "/>
<path class="st0" d="M1011.5,2284.3l-5.2,1.7c-1.1-15-2.2-30-3.2-45c-7,0.4-14,0.8-21,1.1l3.2,41.5c-4.8,3.2-41.8,28.6-33.1,39.2
	c1,1.2,3.8,3.7,32.7,5.5c31.7,1.9,47.6,2.9,53.3-2.3c10.2-9.3-1-31.6-20.6-39.8C1015.4,2285.4,1013.3,2284.8,1011.5,2284.3"/>
<path class="st0" d="M807.9,2321.2l-56.9-0.9l7.3-17.7c13.3-0.3,26.6-0.6,40-0.9L807.9,2321.2z"/>
<polygon class="st0" points="851.3,2316.5 882.8,2297 914.3,2319.1 "/>
<path class="st0" d="M1027.3,2322.4c-2.4-2.2-62.4-2.2-62.4-2.2l18.8-25.9l32.1-0.9L1027.3,2322.4z"/>
<polygon class="st0" points="865.5,670.2 778.3,669 799.3,643.7 799.3,603.3 855.8,602.1 849.4,643.7 "/>
<polygon class="st0" points="923.6,587.2 946.2,583.7 947.8,635.6 983.4,666.7 880,669 926.9,633.3 "/>
<path class="st0" d="M1058,628.1l-5.2,1.7c-1.1-15-2.2-30-3.2-45c-7,0.4-14,0.8-21,1.2l3.2,41.5c-4.8,3.2-41.8,28.6-33.1,39.2
	c1,1.2,3.8,3.7,32.7,5.5c31.7,1.9,47.6,2.9,53.3-2.3c10.2-9.3-1-31.6-20.6-39.8C1061.8,629.2,1059.8,628.5,1058,628.1"/>
<path class="st0" d="M854.4,665l-56.9-0.9l7.3-17.7c13.3-0.3,26.6-0.6,40-0.9L854.4,665z"/>
<polygon class="st0" points="897.8,660.2 929.3,640.8 960.8,662.8 "/>
<path class="st0" d="M1073.8,666.1c-2.4-2.2-62.4-2.2-62.4-2.2l18.8-25.9l32.1-0.9L1073.8,666.1z"/>
<g>
	<g>
		<path d="M-428,1326.3c3.2,0,3.2-5,0-5S-431.2,1326.3-428,1326.3L-428,1326.3z"/>
	</g>
</g>
<ellipse class="st0" cx="270" cy="1001.2" rx="13.5" ry="15"/>
</svg>
